<?xml version="1.0" encoding="UTF-8" standalone="no"?>
<!-- Created with Inkscape (http://www.inkscape.org/) -->

<svg
   xmlns:dc="http://purl.org/dc/elements/1.1/"
   xmlns:cc="http://creativecommons.org/ns#"
   xmlns:rdf="http://www.w3.org/1999/02/22-rdf-syntax-ns#"
   xmlns:svg="http://www.w3.org/2000/svg"
   xmlns="http://www.w3.org/2000/svg"
   xmlns:sodipodi="http://sodipodi.sourceforge.net/DTD/sodipodi-0.dtd"
   xmlns:inkscape="http://www.inkscape.org/namespaces/inkscape"
   width="400"
   height="329.99997"
   id="svg3204"
   version="1.1"
   inkscape:version="0.48.5 r10040"
   sodipodi:docname="board.svg">
  <defs
     id="defs3206" />
  <sodipodi:namedview
     id="base"
     pagecolor="#ffffff"
     bordercolor="#666666"
     borderopacity="1.0"
     inkscape:pageopacity="0.0"
     inkscape:pageshadow="2"
     inkscape:zoom="2"
     inkscape:cx="161.13374"
     inkscape:cy="138.42329"
     inkscape:document-units="px"
     inkscape:current-layer="layer1"
     showgrid="true"
     fit-margin-top="0"
     fit-margin-left="0"
     fit-margin-right="0"
     fit-margin-bottom="0"
     inkscape:window-width="1920"
     inkscape:window-height="1018"
     inkscape:window-x="-8"
     inkscape:window-y="-8"
     inkscape:window-maximized="1">
    <inkscape:grid
       type="xygrid"
       id="grid3313"
       empspacing="5"
       visible="true"
       enabled="true"
       snapvisiblegridlinesonly="true"
       originx="-925px"
       originy="325.00006px" />
  </sodipodi:namedview>
  <metadata
     id="metadata3209">
    <rdf:RDF>
      <cc:Work
         rdf:about="">
        <dc:format>image/svg+xml</dc:format>
        <dc:type
           rdf:resource="http://purl.org/dc/dcmitype/StillImage" />
        <dc:title />
      </cc:Work>
    </rdf:RDF>
  </metadata>
  <g
     inkscape:label="Layer 1"
     inkscape:groupmode="layer"
     id="layer1"
     transform="translate(-925,-1047.3622)">
    <path
       style="color:#000000;fill:#006680;fill-opacity:1;fill-rule:nonzero;stroke:none;stroke-width:1;marker:none;visibility:visible;display:inline;overflow:visible;enable-background:accumulate"
       d="m 925,1357.3621 200,-5 200,5 0,20 -400,0 z"
       id="rect3261-1"
       inkscape:connector-curvature="0"
       sodipodi:nodetypes="cccccc" />
    <path
       style="color:#000000;fill:#00aad4;fill-opacity:1;fill-rule:nonzero;stroke:none;stroke-width:1;marker:none;visibility:visible;display:inline;overflow:visible;enable-background:accumulate"
       d="m 1305,1047.3622 c 11.08,0 20,8.92 20,20 l 0,290 -25,-10e-5 0,-310 z"
       id="rect3240-3-3-4"
       inkscape:connector-curvature="0"
       sodipodi:nodetypes="cscccc" />
    <path
       style="color:#000000;fill:#00aad4;fill-opacity:1;fill-rule:nonzero;stroke:none;stroke-width:1;marker:none;visibility:visible;display:inline;overflow:visible;enable-background:accumulate"
       d="m 945.00002,1047.3622 c -11.08,0 -20,8.92 -20,20 l 0,290 24.99998,-10e-5 0,-310 z"
       id="rect3240-3-3"
       inkscape:connector-curvature="0"
       sodipodi:nodetypes="cscccc" />
    <path
       style="color:#000000;fill:#0088aa;fill-opacity:1;fill-rule:nonzero;stroke:none;stroke-width:1;marker:none;visibility:visible;display:inline;overflow:visible;enable-background:accumulate"
       d="M 20 0 L 20 310 L 380 310 L 380 0 L 20 0 z M 50 10 C 61.045696 10 70 18.954298 70 30 C 70 41.045702 61.045696 50 50 50 C 38.954304 50 30 41.045702 30 30 C 30 18.954298 38.954304 10 50 10 z M 100 10 C 111.0457 10 120 18.954298 120 30 C 120 41.045702 111.0457 50 100 50 C 88.954304 50 80 41.045702 80 30 C 80 18.954298 88.954304 10 100 10 z M 150 10 C 161.0457 10 170 18.954298 170 30 C 170 41.045702 161.0457 50 150 50 C 138.9543 50 130 41.045702 130 30 C 130 18.954298 138.9543 10 150 10 z M 200 10 C 211.0457 10 220 18.954298 220 30 C 220 41.045702 211.0457 50 200 50 C 188.9543 50 180 41.045702 180 30 C 180 18.954298 188.9543 10 200 10 z M 250 10 C 261.0457 10 270 18.954298 270 30 C 270 41.045702 261.0457 50 250 50 C 238.9543 50 230 41.045702 230 30 C 230 18.954298 238.9543 10 250 10 z M 300 10 C 311.0457 10 320 18.954298 320 30 C 320 41.045702 311.0457 50 300 50 C 288.9543 50 280 41.045702 280 30 C 280 18.954298 288.9543 10 300 10 z M 350 10 C 361.0457 10 370 18.954298 370 30 C 370 41.045702 361.0457 50 350 50 C 338.9543 50 330 41.045702 330 30 C 330 18.954298 338.9543 10 350 10 z M 50 60 C 61.045696 60 70 68.954298 70 80 C 70 91.045702 61.045696 100 50 100 C 38.954304 100 30 91.045702 30 80 C 30 68.954298 38.954304 60 50 60 z M 100 60 C 111.0457 60 120 68.954298 120 80 C 120 91.045702 111.0457 100 100 100 C 88.954304 100 80 91.045702 80 80 C 80 68.954298 88.954304 60 100 60 z M 150 60 C 161.0457 60 170 68.954298 170 80 C 170 91.045702 161.0457 100 150 100 C 138.9543 100 130 91.045702 130 80 C 130 68.954298 138.9543 60 150 60 z M 200 60 C 211.0457 60 220 68.954298 220 80 C 220 91.045702 211.0457 100 200 100 C 188.9543 100 180 91.045702 180 80 C 180 68.954298 188.9543 60 200 60 z M 250 60 C 261.0457 60 270 68.954298 270 80 C 270 91.045702 261.0457 100 250 100 C 238.9543 100 230 91.045702 230 80 C 230 68.954298 238.9543 60 250 60 z M 300 60 C 311.0457 60 320 68.954298 320 80 C 320 91.045702 311.0457 100 300 100 C 288.9543 100 280 91.045702 280 80 C 280 68.954298 288.9543 60 300 60 z M 350 60 C 361.0457 60 370 68.954298 370 80 C 370 91.045702 361.0457 100 350 100 C 338.9543 100 330 91.045702 330 80 C 330 68.954298 338.9543 60 350 60 z M 50 110 C 61.045696 110 70 118.9543 70 130 C 70 141.0457 61.045696 150 50 150 C 38.954304 150 30 141.0457 30 130 C 30 118.9543 38.954304 110 50 110 z M 100 110 C 111.0457 110 120 118.9543 120 130 C 120 141.0457 111.0457 150 100 150 C 88.954304 150 80 141.0457 80 130 C 80 118.9543 88.954304 110 100 110 z M 150 110 C 161.0457 110 170 118.9543 170 130 C 170 141.0457 161.0457 150 150 150 C 138.9543 150 130 141.0457 130 130 C 130 118.9543 138.9543 110 150 110 z M 200 110 C 211.0457 110 220 118.9543 220 130 C 220 141.0457 211.0457 150 200 150 C 188.9543 150 180 141.0457 180 130 C 180 118.9543 188.9543 110 200 110 z M 250 110 C 261.0457 110 270 118.9543 270 130 C 270 141.0457 261.0457 150 250 150 C 238.9543 150 230 141.0457 230 130 C 230 118.9543 238.9543 110 250 110 z M 300 110 C 311.0457 110 320 118.9543 320 130 C 320 141.0457 311.0457 150 300 150 C 288.9543 150 280 141.0457 280 130 C 280 118.9543 288.9543 110 300 110 z M 350 110 C 361.0457 110 370 118.9543 370 130 C 370 141.0457 361.0457 150 350 150 C 338.9543 150 330 141.0457 330 130 C 330 118.9543 338.9543 110 350 110 z M 50 160 C 61.045696 160 70 168.9543 70 180 C 70 191.0457 61.045696 200 50 200 C 38.954304 200 30 191.0457 30 180 C 30 168.9543 38.954304 160 50 160 z M 100 160 C 111.0457 160 120 168.9543 120 180 C 120 191.0457 111.0457 200 100 200 C 88.954304 200 80 191.0457 80 180 C 80 168.9543 88.954304 160 100 160 z M 150 160 C 161.0457 160 170 168.9543 170 180 C 170 191.0457 161.0457 200 150 200 C 138.9543 200 130 191.0457 130 180 C 130 168.9543 138.9543 160 150 160 z M 200 160 C 211.0457 160 220 168.9543 220 180 C 220 191.0457 211.0457 200 200 200 C 188.9543 200 180 191.0457 180 180 C 180 168.9543 188.9543 160 200 160 z M 250 160 C 261.0457 160 270 168.9543 270 180 C 270 191.0457 261.0457 200 250 200 C 238.9543 200 230 191.0457 230 180 C 230 168.9543 238.9543 160 250 160 z M 300 160 C 311.0457 160 320 168.9543 320 180 C 320 191.0457 311.0457 200 300 200 C 288.9543 200 280 191.0457 280 180 C 280 168.9543 288.9543 160 300 160 z M 350 160 C 361.0457 160 370 168.9543 370 180 C 370 191.0457 361.0457 200 350 200 C 338.9543 200 330 191.0457 330 180 C 330 168.9543 338.9543 160 350 160 z M 50 210 C 61.045696 210 70 218.9543 70 230 C 70 241.0457 61.045696 250 50 250 C 38.954304 250 30 241.0457 30 230 C 30 218.9543 38.954304 210 50 210 z M 100 210 C 111.0457 210 120 218.9543 120 230 C 120 241.0457 111.0457 250 100 250 C 88.954304 250 80 241.0457 80 230 C 80 218.9543 88.954304 210 100 210 z M 150 210 C 161.0457 210 170 218.9543 170 230 C 170 241.0457 161.0457 250 150 250 C 138.9543 250 130 241.0457 130 230 C 130 218.9543 138.9543 210 150 210 z M 200 210 C 211.0457 210 220 218.9543 220 230 C 220 241.0457 211.0457 250 200 250 C 188.9543 250 180 241.0457 180 230 C 180 218.9543 188.9543 210 200 210 z M 250 210 C 261.0457 210 270 218.9543 270 230 C 270 241.0457 261.0457 250 250 250 C 238.9543 250 230 241.0457 230 230 C 230 218.9543 238.9543 210 250 210 z M 300 210 C 311.0457 210 320 218.9543 320 230 C 320 241.0457 311.0457 250 300 250 C 288.9543 250 280 241.0457 280 230 C 280 218.9543 288.9543 210 300 210 z M 350 210 C 361.0457 210 370 218.9543 370 230 C 370 241.0457 361.0457 250 350 250 C 338.9543 250 330 241.0457 330 230 C 330 218.9543 338.9543 210 350 210 z M 50 260 C 61.045696 260 70 268.9543 70 280 C 70 291.0457 61.045696 300 50 300 C 38.954304 300 30 291.0457 30 280 C 30 268.9543 38.954304 260 50 260 z M 100 260 C 111.0457 260 120 268.9543 120 280 C 120 291.0457 111.0457 300 100 300 C 88.954304 300 80 291.0457 80 280 C 80 268.9543 88.954304 260 100 260 z M 150 260 C 161.0457 260 170 268.9543 170 280 C 170 291.0457 161.0457 300 150 300 C 138.9543 300 130 291.0457 130 280 C 130 268.9543 138.9543 260 150 260 z M 200 260 C 211.0457 260 220 268.9543 220 280 C 220 291.0457 211.0457 300 200 300 C 188.9543 300 180 291.0457 180 280 C 180 268.9543 188.9543 260 200 260 z M 250 260 C 261.0457 260 270 268.9543 270 280 C 270 291.0457 261.0457 300 250 300 C 238.9543 300 230 291.0457 230 280 C 230 268.9543 238.9543 260 250 260 z M 300 260 C 311.0457 260 320 268.9543 320 280 C 320 291.0457 311.0457 300 300 300 C 288.9543 300 280 291.0457 280 280 C 280 268.9543 288.9543 260 300 260 z M 350 260 C 361.0457 260 370 268.9543 370 280 C 370 291.0457 361.0457 300 350 300 C 338.9543 300 330 291.0457 330 280 C 330 268.9543 338.9543 260 350 260 z "
       transform="translate(925,1047.3622)"
       id="rect3238-3" />
  </g>
</svg>
